# xmcd
#
# Track frame offsets: 
#        150
#        11370
#        23174
#        36358
#        47218
#        62872
#        74992
#        89369
#        98473
#        112528
#        126223
#        142318
#        158135
#        173021
#        187338
#        203073
#        216317
#        227844
#        243549
#        256936
#        271330
#        287027
#        301396
#        317048
#
# Disc length: 4435 seconds
#
# Revision: 0
# Processed by: cddbd v1.5.2PL0 Copyright (c) Steve Scherf et al.
# Submitted via: ExactAudioCopyFreeDBPlugin 1.0
#
DISCID=65115118
DTITLE=Bill Brandon - On the Rainbow Road
DYEAR=2007
DGENRE=Soul
TTITLE0=Self Preservation
TTITLE1=Full Grown Lovin' Man
TTITLE2=Rainbow Road
TTITLE3=(You've Got That) Something Wonderful
TTITLE4=Strangest Feeling
TTITLE5=Since I Fell for You
TTITLE6=Little By Little
TTITLE7=All I Need is You
TTITLE8=When You Get What You Want
TTITLE9=Stop This Merry-Go-Round
TTITLE10=I'm a Believer Now
TTITLE11=Johnnie Mae Wright
TTITLE12=Whatever I Am, I'm Yours
TTITLE13=I Am Free of Your Love
TTITLE14=(Take Another Little) Piece of My Heart
TTITLE15=It's All Wrong, It's All Right
TTITLE16=Doing Right Don't Wrong Nobody
TTITLE17=Let's Make Our New Love Something Special
TTITLE18=Let Me Be Your Full Time Groover
TTITLE19=The Streets Got My Lady
TTITLE20=Tag, Tag
TTITLE21=Good Guys Don't Always Win
TTITLE22=Let's Get it Back Together Again
TTITLE23=I'll Be Your Puppet
EXTD=
EXTT0=
EXTT1=
EXTT2=
EXTT3=
EXTT4=
EXTT5=
EXTT6=
EXTT7=
EXTT8=
EXTT9=
EXTT10=
EXTT11=
EXTT12=
EXTT13=
EXTT14=
EXTT15=
EXTT16=
EXTT17=
EXTT18=
EXTT19=
EXTT20=
EXTT21=
EXTT22=
EXTT23=
PLAYORDER=
